{
  "accessors": [
    {
      "bufferView": 2,
      "componentType": 5126,
      "count": 1398,
      "max": [
        4.683027744293213,
        16.460336685180664,
        3.6969287395477295
      ],
      "min": [
        -5.164792537689209,
        -11.471076965332031,
        -5.1713385581970215
      ],
      "type": "VEC3"
    },
    {
      "bufferView": 2,
      "byteOffset": 16776,
      "componentType": 5126,
      "count": 1398,
      "max": [
        1.0,
        1.0,
        1.0
      ],
      "min": [
        -1.0,
        -1.0,
        -1.0
      ],
      "type": "VEC3"
    },
    {
      "bufferView": 1,
      "componentType": 5126,
      "count": 1398,
      "max": [
        0.49000000953674316,
        0.49000000953674316
      ],
      "min": [
        0.0,
        0.0
      ],
      "type": "VEC2"
    },
    {
      "bufferView": 0,
      "componentType": 5125,
      "count": 4404,
      "type": "SCALAR"
    },
    {
      "bufferView": 2,
      "byteOffset": 33552,
      "componentType": 5126,
      "count": 5317,
      "max": [
        1.4398757219314575,
        15.568269729614258,
        1.3892784118652344
      ],
      "min": [
        -0.9950177073478699,
        -3.9003942012786865,
        -1.0456149578094482
      ],
      "type": "VEC3"
    },
    {
      "bufferView": 2,
      "byteOffset": 97356,
      "componentType": 5126,
      "count": 5317,
      "max": [
        1.0,
        1.0,
        1.0
      ],
      "min": [
        -1.0,
        -1.0,
        -1.0
      ],
      "type": "VEC3"
    },
    {
      "bufferView": 1,
      "byteOffset": 11184,
      "componentType": 5126,
      "count": 5317,
      "max": [
        1.0,
        1.0
      ],
      "min": [
        0.0,
        0.010000004433095455
      ],
      "type": "VEC2"
    },
    {
      "bufferView": 0,
      "byteOffset": 17616,
      "componentType": 5125,
      "count": 15708,
      "type": "SCALAR"
    },
    {
      "bufferView": 2,
      "byteOffset": 161160,
      "componentType": 5126,
      "count": 1143,
      "max": [
        1.9070727825164795,
        17.225500106811523,
        1.59186589717865
      ],
      "min": [
        -1.5747792720794678,
        -4.557611465454102,
        -1.6359045505523682
      ],
      "type": "VEC3"
    },
    {
      "bufferView": 2,
      "byteOffset": 174876,
      "componentType": 5126,
      "count": 1143,
      "max": [
        1.0,
        1.0,
        0.9939185976982117
      ],
      "min": [
        -1.0,
        -1.0,
        -0.9922664761543274
      ],
      "type": "VEC3"
    },
    {
      "bufferView": 1,
      "byteOffset": 53720,
      "componentType": 5126,
      "count": 1143,
      "max": [
        1.0,
        1.0
      ],
      "min": [
        -1.341104507446289e-07,
        0.013456018641591072
      ],
      "type": "VEC2"
    },
    {
      "bufferView": 0,
      "byteOffset": 80448,
      "componentType": 5125,
      "count": 2694,
      "type": "SCALAR"
    },
    {
      "bufferView": 2,
      "byteOffset": 188592,
      "componentType": 5126,
      "count": 864,
      "max": [
        7.262251377105713,
        -16.775127410888672,
        5.697810649871826
      ],
      "min": [
        -8.404990196228027,
        -17.715106964111328,
        -8.368664741516113
      ],
      "type": "VEC3"
    },
    {
      "bufferView": 2,
      "byteOffset": 198960,
      "componentType": 5126,
      "count": 864,
      "max": [
        0.9959880113601685,
        0.9037051200866699,
        0.9995988607406616
      ],
      "min": [
        -0.9993268251419067,
        -0.9882362484931946,
        -0.9971441030502319
      ],
      "type": "VEC3"
    },
    {
      "bufferView": 1,
      "byteOffset": 62864,
      "componentType": 5126,
      "count": 864,
      "max": [
        0.0,
        0.0
      ],
      "min": [
        0.0,
        0.0
      ],
      "type": "VEC2"
    },
    {
      "bufferView": 0,
      "byteOffset": 91224,
      "componentType": 5125,
      "count": 4302,
      "type": "SCALAR"
    },
    {
      "bufferView": 2,
      "byteOffset": 209328,
      "componentType": 5126,
      "count": 960,
      "max": [
        6.995776653289795,
        -11.167469024658203,
        5.483448028564453
      ],
      "min": [
        -8.07885456085205,
        -17.07872772216797,
        -8.046658515930176
      ],
      "type": "VEC3"
    },
    {
      "bufferView": 2,
      "byteOffset": 220848,
      "componentType": 5126,
      "count": 960,
      "max": [
        0.9959141612052917,
        0.46215492486953735,
        0.9971446394920349
      ],
      "min": [
        -0.995914101600647,
        -0.4621533751487732,
        -0.9971444606781006
      ],
      "type": "VEC3"
    },
    {
      "bufferView": 1,
      "byteOffset": 69776,
      "componentType": 5126,
      "count": 960,
      "max": [
        0.0,
        0.0
      ],
      "min": [
        0.0,
        0.0
      ],
      "type": "VEC2"
    },
    {
      "bufferView": 0,
      "byteOffset": 108432,
      "componentType": 5125,
      "count": 2880,
      "type": "SCALAR"
    },
    {
      "bufferView": 2,
      "byteOffset": 232368,
      "componentType": 5126,
      "count": 768,
      "max": [
        6.738803863525391,
        -11.790546417236328,
        5.284945011138916
      ],
      "min": [
        -7.755069255828857,
        -16.455650329589844,
        -7.727177143096924
      ],
      "type": "VEC3"
    },
    {
      "bufferView": 2,
      "byteOffset": 241584,
      "componentType": 5126,
      "count": 768,
      "max": [
        0.995914101600647,
        0.46215417981147766,
        0.9971444606781006
      ],
      "min": [
        -0.995914101600647,
        -0.4621533751487732,
        -0.9971444606781006
      ],
      "type": "VEC3"
    },
    {
      "bufferView": 1,
      "byteOffset": 77456,
      "componentType": 5126,
      "count": 768,
      "max": [
        0.0,
        0.0
      ],
      "min": [
        0.0,
        0.0
      ],
      "type": "VEC2"
    },
    {
      "bufferView": 0,
      "byteOffset": 119952,
      "componentType": 5125,
      "count": 2304,
      "type": "SCALAR"
    },
    {
      "bufferView": 2,
      "byteOffset": 250800,
      "componentType": 5126,
      "count": 2926,
      "max": [
        3.7909493446350098,
        -0.059097521007061005,
        5.5868425369262695
      ],
      "min": [
        -3.7909493446350098,
        -0.7461153268814087,
        -4.648292064666748
      ],
      "type": "VEC3"
    },
    {
      "bufferView": 2,
      "byteOffset": 285912,
      "componentType": 5126,
      "count": 2926,
      "max": [
        1.0,
        1.0,
        1.0
      ],
      "min": [
        -1.0,
        -1.0,
        -1.0
      ],
      "type": "VEC3"
    },
    {
      "bufferView": 1,
      "byteOffset": 83600,
      "componentType": 5126,
      "count": 2926,
      "max": [
        1.0,
        1.0
      ],
      "min": [
        -1.862645149230957e-07,
        0.0
      ],
      "type": "VEC2"
    },
    {
      "bufferView": 0,
      "byteOffset": 129168,
      "componentType": 5125,
      "count": 6378,
      "type": "SCALAR"
    },
    {
      "bufferView": 2,
      "byteOffset": 321024,
      "componentType": 5126,
      "count": 1090,
      "max": [
        3.1037955284118652,
        0.06286577135324478,
        4.105355262756348
      ],
      "min": [
        -3.1037955284118652,
        -0.4049411416053772,
        -4.105355262756348
      ],
      "type": "VEC3"
    },
    {
      "bufferView": 2,
      "byteOffset": 334104,
      "componentType": 5126,
      "count": 1090,
      "max": [
        1.0,
        1.0,
        1.0
      ],
      "min": [
        -1.0,
        -1.0,
        -1.0
      ],
      "type": "VEC3"
    },
    {
      "bufferView": 1,
      "byteOffset": 107008,
      "componentType": 5126,
      "count": 1090,
      "max": [
        0.6250000596046448,
        1.0
      ],
      "min": [
        0.12577275931835175,
        0.0
      ],
      "type": "VEC2"
    },
    {
      "bufferView": 0,
      "byteOffset": 154680,
      "componentType": 5125,
      "count": 1728,
      "type": "SCALAR"
    },
    {
      "bufferView": 2,
      "byteOffset": 347184,
      "componentType": 5126,
      "count": 376,
      "max": [
        3.1432557106018066,
        0.12383168935775757,
        4.362245082855225
      ],
      "min": [
        -3.1432557106018066,
        -0.3006975054740906,
        -4.357587814331055
      ],
      "type": "VEC3"
    },
    {
      "bufferView": 2,
      "byteOffset": 351696,
      "componentType": 5126,
      "count": 376,
      "max": [
        1.0,
        1.0,
        1.0
      ],
      "min": [
        -1.0,
        -1.0,
        -1.0
      ],
      "type": "VEC3"
    },
    {
      "bufferView": 1,
      "byteOffset": 115728,
      "componentType": 5126,
      "count": 376,
      "max": [
        0.8735913634300232,
        1.0
      ],
      "min": [
        0.125,
        0.0
      ],
      "type": "VEC2"
    },
    {
      "bufferView": 0,
      "byteOffset": 161592,
      "componentType": 5125,
      "count": 516,
      "type": "SCALAR"
    },
    {
      "bufferView": 2,
      "byteOffset": 356208,
      "componentType": 5126,
      "count": 26794,
      "max": [
        2.934199333190918,
        0.16449491679668427,
        3.886692762374878
      ],
      "min": [
        -2.934199333190918,
        0.014341351576149464,
        -3.8868017196655273
      ],
      "type": "VEC3"
    },
    {
      "bufferView": 2,
      "byteOffset": 677736,
      "componentType": 5126,
      "count": 26794,
      "max": [
        1.0,
        1.0,
        1.0
      ],
      "min": [
        -1.0,
        -1.0,
        -1.0
      ],
      "type": "VEC3"
    },
    {
      "bufferView": 1,
      "byteOffset": 118736,
      "componentType": 5126,
      "count": 26794,
      "max": [
        1.0000001192092896,
        1.0000001192092896
      ],
      "min": [
        0.0,
        0.013083103112876415
      ],
      "type": "VEC2"
    },
    {
      "bufferView": 0,
      "byteOffset": 163656,
      "componentType": 5125,
      "count": 76176,
      "type": "SCALAR"
    },
    {
      "bufferView": 2,
      "byteOffset": 999264,
      "componentType": 5126,
      "count": 12184,
      "max": [
        2.6328976154327393,
        0.1338973194360733,
        3.635518789291382
      ],
      "min": [
        -2.6328976154327393,
        0.11173400282859802,
        -3.63551926612854
      ],
      "type": "VEC3"
    },
    {
      "bufferView": 2,
      "byteOffset": 1145472,
      "componentType": 5126,
      "count": 12184,
      "max": [
        0.9865236282348633,
        1.0,
        0.90607750415802
      ],
      "min": [
        -0.9865237474441528,
        -0.453470379114151,
        -0.9061008095741272
      ],
      "type": "VEC3"
    },
    {
      "bufferView": 1,
      "byteOffset": 333088,
      "componentType": 5126,
      "count": 12184,
      "max": [
        1.0000001192092896,
        1.000000238418579
      ],
      "min": [
        0.0,
        0.013416433706879616
      ],
      "type": "VEC2"
    },
    {
      "bufferView": 0,
      "byteOffset": 468360,
      "componentType": 5125,
      "count": 30000,
      "type": "SCALAR"
    }
  ],
  "asset": {
    "extras": {
      "author": "ROY (https://sketchfab.com/roy.gearloft.in)",
      "license": "CC-BY-4.0 (http://creativecommons.org/licenses/by/4.0/)",
      "source": "https://sketchfab.com/3d-models/led-soft-light-panel-482c075e82f64cfdaa55e45fde9af8f2",
      "title": "LED Soft Light Panel"
    },
    "generator": "Sketchfab-15.27.0",
    "version": "2.0"
  },
  "bufferViews": [
    {
      "buffer": 0,
      "byteLength": 588360,
      "name": "floatBufferViews",
      "target": 34963
    },
    {
      "buffer": 0,
      "byteLength": 430560,
      "byteOffset": 588360,
      "byteStride": 8,
      "name": "floatBufferViews",
      "target": 34962
    },
    {
      "buffer": 0,
      "byteLength": 1291680,
      "byteOffset": 1018920,
      "byteStride": 12,
      "name": "floatBufferViews",
      "target": 34962
    }
  ],
  "buffers": [
    {
      "byteLength": 2310600,
      "uri": "scene.bin"
    }
  ],
  "images": [
    {
      "uri": "textures/INOX_baseColor.png"
    }
  ],
  "materials": [
    {
      "doubleSided": true,
      "name": "INOX",
      "pbrMetallicRoughness": {
        "baseColorTexture": {
          "index": 0
        },
        "metallicFactor": 0.455882,
        "roughnessFactor": 0.448529
      }
    },
    {
      "doubleSided": true,
      "name": "BLACK_METAL",
      "pbrMetallicRoughness": {
        "baseColorFactor": [
          0.0363052,
          0.0363052,
          0.0363052,
          1.0
        ],
        "metallicFactor": 0.323529,
        "roughnessFactor": 0.220588
      }
    },
    {
      "doubleSided": true,
      "name": "DTLS",
      "pbrMetallicRoughness": {
        "baseColorFactor": [
          0.130542,
          0.130542,
          0.130542,
          1.0
        ],
        "metallicFactor": 0.352941,
        "roughnessFactor": 0.198529
      }
    },
    {
      "doubleSided": true,
      "name": "Material.023",
      "pbrMetallicRoughness": {
        "baseColorFactor": [
          0.0300729,
          0.0300729,
          0.0300729,
          1.0
        ],
        "metallicFactor": 0.764706,
        "roughnessFactor": 0.477941
      }
    },
    {
      "doubleSided": true,
      "name": "NOIR",
      "pbrMetallicRoughness": {
        "baseColorFactor": [
          0.0,
          0.0,
          0.0,
          1.0
        ],
        "metallicFactor": 0.309963,
        "roughnessFactor": 0.5
      }
    },
    {
      "doubleSided": true,
      "name": "Petard_J",
      "pbrMetallicRoughness": {
        "baseColorFactor": [
          0.8,
          0.209385,
          0.0,
          1.0
        ],
        "metallicFactor": 0.346863,
        "roughnessFactor": 0.5
      }
    },
    {
      "doubleSided": true,
      "name": "MIROR_LOW",
      "pbrMetallicRoughness": {
        "baseColorFactor": [
          0.25636,
          0.25636,
          0.25636,
          1.0
        ],
        "metallicFactor": 0.455882,
        "roughnessFactor": 0.147059
      }
    },
    {
      "doubleSided": true,
      "emissiveFactor": [
        0.428055,
        0.806357,
        1.0
      ],
      "name": "LIGHT"
    }
  ],
  "meshes": [
    {
      "name": "Object_0",
      "primitives": [
        {
          "attributes": {
            "NORMAL": 1,
            "POSITION": 0,
            "TEXCOORD_0": 2
          },
          "indices": 3,
          "material": 0,
          "mode": 4
        }
      ]
    },
    {
      "name": "Object_1",
      "primitives": [
        {
          "attributes": {
            "NORMAL": 5,
            "POSITION": 4,
            "TEXCOORD_0": 6
          },
          "indices": 7,
          "material": 1,
          "mode": 4
        }
      ]
    },
    {
      "name": "Object_2",
      "primitives": [
        {
          "attributes": {
            "NORMAL": 9,
            "POSITION": 8,
            "TEXCOORD_0": 10
          },
          "indices": 11,
          "material": 2,
          "mode": 4
        }
      ]
    },
    {
      "name": "Object_3",
      "primitives": [
        {
          "attributes": {
            "NORMAL": 13,
            "POSITION": 12,
            "TEXCOORD_0": 14
          },
          "indices": 15,
          "material": 3,
          "mode": 4
        }
      ]
    },
    {
      "name": "Object_4",
      "primitives": [
        {
          "attributes": {
            "NORMAL": 17,
            "POSITION": 16,
            "TEXCOORD_0": 18
          },
          "indices": 19,
          "material": 4,
          "mode": 4
        }
      ]
    },
    {
      "name": "Object_5",
      "primitives": [
        {
          "attributes": {
            "NORMAL": 21,
            "POSITION": 20,
            "TEXCOORD_0": 22
          },
          "indices": 23,
          "material": 5,
          "mode": 4
        }
      ]
    },
    {
      "name": "Object_6",
      "primitives": [
        {
          "attributes": {
            "NORMAL": 25,
            "POSITION": 24,
            "TEXCOORD_0": 26
          },
          "indices": 27,
          "material": 0,
          "mode": 4
        }
      ]
    },
    {
      "name": "Object_7",
      "primitives": [
        {
          "attributes": {
            "NORMAL": 29,
            "POSITION": 28,
            "TEXCOORD_0": 30
          },
          "indices": 31,
          "material": 0,
          "mode": 4
        }
      ]
    },
    {
      "name": "Object_8",
      "primitives": [
        {
          "attributes": {
            "NORMAL": 33,
            "POSITION": 32,
            "TEXCOORD_0": 34
          },
          "indices": 35,
          "material": 2,
          "mode": 4
        }
      ]
    },
    {
      "name": "Object_9",
      "primitives": [
        {
          "attributes": {
            "NORMAL": 37,
            "POSITION": 36,
            "TEXCOORD_0": 38
          },
          "indices": 39,
          "material": 6,
          "mode": 4
        }
      ]
    },
    {
      "name": "Object_10",
      "primitives": [
        {
          "attributes": {
            "NORMAL": 41,
            "POSITION": 40,
            "TEXCOORD_0": 42
          },
          "indices": 43,
          "material": 7,
          "mode": 4
        }
      ]
    }
  ],
  "nodes": [
    {
      "children": [
        1
      ],
      "matrix": [
        -0.7103685736656189,
        1.1423597739498964e-16,
        -2.012310317848413e-16,
        0.0,
        -2.0123103178484131e-16,
        -4.3497531895750757e-17,
        0.7103685736656189,
        0.0,
        1.142359773949896e-16,
        0.7103685736656189,
        4.3497531895750757e-17,
        0.0,
        0.0,
        0.0,
        0.0,
        1.0
      ],
      "name": "Sketchfab_model"
    },
    {
      "children": [
        2
      ],
      "name": "root"
    },
    {
      "children": [
        3
      ],
      "matrix": [
        1.0,
        0.0,
        0.0,
        0.0,
        0.0,
        2.220446049250313e-16,
        1.0,
        0.0,
        0.0,
        -1.0,
        2.220446049250313e-16,
        0.0,
        0.0,
        0.0,
        0.0,
        1.0
      ],
      "name": "GLTF_SceneRootNode"
    },
    {
      "children": [
        4,
        5,
        6,
        7,
        8,
        9,
        10,
        12
      ],
      "matrix": [
        0.02158387875229405,
        0.0,
        -0.03267350023478005,
        0.0,
        0.0,
        0.03915892541408539,
        0.0,
        0.0,
        0.03267350023478005,
        0.0,
        0.02158387875229405,
        0.0,
        0.006720890756696463,
        0.6940165162086487,
        0.0,
        1.0
      ],
      "name": "Body_2"
    },
    {
      "mesh": 0,
      "name": "Object_4"
    },
    {
      "mesh": 1,
      "name": "Object_5"
    },
    {
      "mesh": 2,
      "name": "Object_6"
    },
    {
      "mesh": 3,
      "name": "Object_7"
    },
    {
      "mesh": 4,
      "name": "Object_8"
    },
    {
      "mesh": 5,
      "name": "Object_9"
    },
    {
      "children": [
        11
      ],
      "matrix": [
        1.9554368257522583,
        0.0,
        0.0,
        0.0,
        0.0,
        0.0,
        1.955437421798706,
        0.0,
        0.0,
        -1.955437421798706,
        0.0,
        0.0,
        0.26925602555274963,
        27.487348556518555,
        0.930389404296875,
        1.0
      ],
      "name": "Cube.002_0"
    },
    {
      "mesh": 6,
      "name": "Object_11"
    },
    {
      "children": [
        13,
        14,
        15,
        16
      ],
      "matrix": [
        1.9554368257522583,
        0.0,
        0.0,
        0.0,
        0.0,
        -0.666492455848007,
        1.8383478589907476,
        0.0,
        0.0,
        -1.8383478589907476,
        -0.666492455848007,
        0.0,
        0.2863616943359375,
        27.54438591003418,
        0.5820847749710083,
        1.0
      ],
      "name": "Cube.003_1"
    },
    {
      "mesh": 7,
      "name": "Object_13"
    },
    {
      "mesh": 8,
      "name": "Object_14"
    },
    {
      "mesh": 9,
      "name": "Object_15"
    },
    {
      "mesh": 10,
      "name": "Object_16"
    }
  ],
  "samplers": [
    {
      "magFilter": 9729,
      "minFilter": 9987,
      "wrapS": 10497,
      "wrapT": 10497
    }
  ],
  "scene": 0,
  "scenes": [
    {
      "name": "Sketchfab_Scene",
      "nodes": [
        0
      ]
    }
  ],
  "textures": [
    {
      "sampler": 0,
      "source": 0
    }
  ]
}
